<?xml version="1.0" encoding="UTF-8"?>
<svg version="1.1" xmlns="http://www.w3.org/2000/svg" width="142" height="142">
<path d="M0 0 C46.86 0 93.72 0 142 0 C142 46.86 142 93.72 142 142 C95.14 142 48.28 142 0 142 C0 95.14 0 48.28 0 0 Z " fill="#FCFCFC" transform="translate(0,0)"/>
<path d="M0 0 C6.49196796 -0.10217095 12.98372542 -0.17178598 19.47631836 -0.21972656 C21.68082426 -0.23973086 23.88527786 -0.26694322 26.08959961 -0.30175781 C29.27470883 -0.35077058 32.45911116 -0.37308127 35.64453125 -0.390625 C36.61582474 -0.41127014 37.58711823 -0.43191528 38.58784485 -0.45318604 C46.78593228 -0.45582057 53.93207912 1.49000627 60.9375 5.8125 C66.2337036 11.42968563 67.34749043 15.29064589 67.25 22.9375 C67.1675 25.268125 67.085 27.59875 67 30 C79.87 30.495 79.87 30.495 93 31 C93 37.12321914 92.85617989 42.11376326 92 48 C91.34 48 90.68 48 90 48 C89.690625 46.7625 89.38125 45.525 89.0625 44.25 C87.69529644 40.62979901 86.36288566 39.18002869 82.875 37.5 C76.86284326 35.30043046 71.63878572 35.02267196 65.625 37.25 C62.92220616 39.05186256 61.44991822 40.10016357 60 43 C59.33323122 46.45749949 59.33323122 46.45749949 60 50 C64.19275129 55.08501035 69.76206505 58.32669984 75.25 61.875 C96.87959242 75.9141791 96.87959242 75.9141791 99 84 C100.03428193 92.22614934 98.55147754 98.61145863 94.4375 105.6875 C87.11145086 112.63785431 78.54948359 114.19669706 68.875 114.25 C67.96234375 114.270625 67.0496875 114.29125 66.109375 114.3125 C58.53480757 114.35565993 52.51646396 113.07543878 45.96875 109.2109375 C42.66432197 105.50001237 43.45430308 101.89451748 43.625 97.15234375 C44.07460447 93.37285616 44.86722557 91.11029604 47 88 C47.33 88 47.66 88 48 88 C48.14695312 88.87011719 48.14695312 88.87011719 48.296875 89.7578125 C49.75544228 97.37756913 52.43541788 102.51687074 59 107 C63.67189454 109.66965402 68.76894233 109.64394479 74 109 C78.18016664 107.69809625 81.13118479 106.00456759 84 102.6875 C85.3168526 99.14845864 85.53556979 96.74898852 85 93 C83.36713345 90.80407602 82.13696934 89.62727643 80 88 C78.88431641 87.14148438 78.88431641 87.14148438 77.74609375 86.265625 C73.63998989 83.20593509 69.46408564 80.2815747 65.16015625 77.5078125 C49.2753387 67.25444102 49.2753387 67.25444102 46 59 C45.8046875 55.984375 45.8046875 55.984375 45.875 52.75 C45.89304688 51.67234375 45.91109375 50.5946875 45.9296875 49.484375 C45.95289063 48.66453125 45.97609375 47.8446875 46 47 C45.030625 47.0825 44.06125 47.165 43.0625 47.25 C38.18871287 47.28994907 34.26483649 45.16626615 30 43 C30 42.34 30 41.68 30 41 C30.58007812 40.91363281 31.16015625 40.82726563 31.7578125 40.73828125 C37.6042881 39.68668745 40.91738041 38.37423527 45 34 C48.46348602 28.2275233 48.7412907 22.64156396 48 16 C46.48252552 11.75107147 44.89098319 9.31027127 41 7 C37.83754459 5.9458482 35.13051782 5.68724328 31.8125 5.4375 C30.72582031 5.35371094 29.63914062 5.26992188 28.51953125 5.18359375 C27.68808594 5.12300781 26.85664062 5.06242187 26 5 C26.08438475 13.92754947 26.17926075 22.85490784 26.28752708 31.78219986 C26.33747012 35.92751978 26.3838003 40.07281446 26.421875 44.21826172 C26.45875305 48.21894987 26.50511977 52.21942588 26.55806351 56.21993256 C26.57659408 57.74610421 26.591707 59.27232131 26.60334396 60.7985611 C26.62022952 62.93656634 26.64926929 65.07408715 26.68115234 67.21191406 C26.69447601 68.4288092 26.70779968 69.64570435 26.7215271 70.8994751 C26.98874004 73.87463132 27.28064398 75.58071452 29 78 C32.04199472 79.29231642 32.04199472 79.29231642 35 80 C35 80.33 35 80.66 35 81 C23.45 81 11.9 81 0 81 C1.98 80.01 1.98 80.01 4 79 C7.24849977 77.27773504 7.24849977 77.27773504 8 74 C8.10973112 71.79295398 8.15902548 69.58274593 8.17700195 67.37304688 C8.18685875 66.37012352 8.18685875 66.37012352 8.19691467 65.34693909 C8.21660399 63.13754155 8.22829736 60.92821168 8.23828125 58.71875 C8.24235678 57.96399887 8.2464323 57.20924774 8.25063133 56.43162537 C8.27146846 52.44058507 8.28578314 48.44957898 8.29516602 44.45849609 C8.30625568 40.33222432 8.34069091 36.20648808 8.38033772 32.08040619 C8.40643984 28.90971859 8.41485184 25.73916024 8.41844749 22.56837463 C8.42332622 21.04688377 8.43497672 19.52539916 8.45348549 18.00401306 C8.47775389 15.87788868 8.47693624 13.75317268 8.4699707 11.62695312 C8.47583694 10.41688599 8.48170319 9.20681885 8.48774719 7.96008301 C8.28420406 4.93955931 8.28420406 4.93955931 6.22062683 3.21081543 C4.16582155 2.09041559 2.12300088 0.98567898 0 0 Z " fill="#070707" transform="translate(21,16)"/>
<path d="M0 0 C0.625 1.8125 0.625 1.8125 1 4 C0.01 5.485 0.01 5.485 -1 7 C-1.45915507 9.96842658 -1.45915507 9.96842658 -1.625 13.1875 C-1.69976562 14.27417969 -1.77453125 15.36085938 -1.8515625 16.48046875 C-1.90054688 17.31191406 -1.94953125 18.14335938 -2 19 C-2.33 19 -2.66 19 -3 19 C-3.55353075 5.18223235 -3.55353075 5.18223235 0 0 Z " fill="#313131" transform="translate(68,104)"/>
</svg>
